<svg version="1.0" xmlns="http://www.w3.org/2000/svg" width="682.667" height="682.667" viewBox="0 0 512 512">
    <path
        d="M236.9.4c-.2.2-3.5.6-7.4 1-6.9.7-8 .8-16 2.1-12 1.9-29.2 6.4-40.7 10.5-4.5 1.7-9 3.2-9.8 3.4-3.6.9-20.4 8.9-31.5 15C92.6 53.8 58.8 86.7 36.2 125c-9.2 15.7-18.5 35.8-23.1 50-3.6 11.3-6 20.1-6.6 23.9-.3 2.4-1.1 5.5-1.6 7-.6 1.4-1 2.7-.9 2.9.1.1-.1 2-.5 4.2-2.4 14.4-3 22.2-3 44 .1 19.3.6 29.7 2 37 .3 1.3.7 4.2 1.1 6.4.3 2.2.7 4.3.9 4.6.2.3.6 2.1.9 4 .3 1.9 1.7 7.8 3.1 13 1.3 5.2 2.7 10.3 2.9 11.3 1.3 4.7 6.4 18.3 10.7 28.1 25.7 58.2 73.2 105.2 132.2 131 2 .9 5.2 2.3 7 3.1 11.4 5.1 33.8 11.2 55.7 15.3 4.8.9 71.4.9 77 0 2.5-.4 5.6-1 7-1.3 1.4-.2 4.1-.8 6-1.1 12.2-2.2 35.6-9.5 50-15.6 18.9-8.1 42.6-22.4 59.5-35.9 8.2-6.6 27.1-24.9 33.9-32.9 18-20.9 35.4-50.5 44.9-76 3.5-9.4 8.4-25 9.2-29.1.2-1.1.6-2.8.9-3.7.5-1.6.7-2.9 2.1-10.7.3-1.7.8-4.1 1-5.5 1-5.1 1.3-6.6 2.1-13.5 1.1-9 1.1-48.1.1-56.5-1.4-11.3-1.8-13.8-3.2-21.5-.7-3.3-3.5-14.9-5.8-23.5-8.7-32.4-30.7-71.8-55.2-99-11.5-12.7-35-33.6-43.5-38.6-1.6-1-3-2.2-3-2.6 0-.4-.6-.8-1.4-.8-.7 0-2.4-.9-3.7-1.9-6.4-5-26.7-15.6-44.4-23.1-3.2-1.4-19.3-7.1-21.2-7.5-1-.3-3.6-.9-5.8-1.5-6.2-1.6-6.7-1.8-12-3-5.6-1.3-13.7-2.7-20.5-3.6-2.5-.3-5.6-.8-7-1.1-2.8-.5-46.5-1.4-47.1-.9z"/>
</svg>
